<?xml version="1.0" encoding="utf-8" ?>
<svg baseProfile="tiny" height="100%" version="1.2" width="100%" xmlns="http://www.w3.org/2000/svg" xmlns:ev="http://www.w3.org/2001/xml-events" xmlns:xlink="http://www.w3.org/1999/xlink"><defs /><polyline fill="none" points="92.0,106.0 92.0,107.0 93.0,108.0 93.0,109.0 92.0,110.0 92.0,112.0 91.0,113.0 91.0,114.0 90.0,115.0 90.0,117.0 90.0,116.0 91.0,115.0 91.0,113.0 92.0,112.0 92.0,111.0 94.0,109.0 96.0,111.0 96.0,112.0 97.0,113.0 97.0,114.0 98.0,115.0 98.0,117.0 98.0,115.0 97.0,114.0 97.0,112.0 95.0,110.0 95.0,108.0 94.0,109.0 92.0,107.0" stroke="black" /><polyline fill="none" points="76.0,106.0 76.0,112.0 77.0,113.0 77.0,117.0 77.0,113.0 76.0,112.0 76.0,107.0 77.0,106.0 81.0,106.0 82.0,107.0 81.0,106.0" stroke="black" /><polyline fill="none" points="80.0,100.0 80.0,101.0 81.0,102.0 81.0,103.0 84.0,106.0 84.0,107.0 84.0,106.0 81.0,103.0 81.0,102.0 80.0,101.0" stroke="black" /><polyline fill="none" points="73.0,100.0 73.0,101.0 74.0,102.0 75.0,102.0 76.0,103.0 78.0,101.0 76.0,103.0 75.0,102.0 74.0,102.0 73.0,101.0" stroke="black" /><polyline fill="none" points="94.0,91.0 94.0,92.0" stroke="black" /><polyline fill="none" points="72.0,89.0 72.0,90.0 73.0,91.0 73.0,92.0 72.0,93.0 73.0,93.0 73.0,90.0" stroke="black" /><polyline fill="none" points="93.0,88.0 94.0,89.0" stroke="black" /><polyline fill="none" points="97.0,87.0 102.0,87.0" stroke="black" /><polyline fill="none" points="92.0,83.0 95.0,83.0" stroke="black" /><polyline fill="none" points="109.0,78.0 109.0,80.0 110.0,81.0 110.0,82.0 111.0,83.0 111.0,84.0 112.0,85.0 112.0,87.0 113.0,88.0 112.0,87.0 112.0,84.0 111.0,83.0 111.0,82.0 109.0,80.0" stroke="black" /><polyline fill="none" points="112.0,72.0 112.0,73.0 113.0,74.0 113.0,75.0 114.0,76.0 114.0,79.0 113.0,80.0 112.0,79.0 114.0,81.0 114.0,83.0 114.0,81.0 113.0,80.0 114.0,79.0 114.0,76.0 113.0,75.0 113.0,74.0 112.0,73.0" stroke="black" /><polyline fill="none" points="107.0,64.0 107.0,67.0 108.0,68.0 108.0,69.0 107.0,70.0 109.0,72.0 109.0,75.0 109.0,71.0 108.0,71.0 107.0,70.0 108.0,69.0 108.0,67.0 107.0,66.0" stroke="black" /><polyline fill="none" points="77.0,58.0 76.0,59.0 77.0,60.0 76.0,61.0 76.0,67.0 75.0,68.0 75.0,72.0 74.0,73.0 74.0,78.0 75.0,79.0 75.0,81.0 76.0,80.0 77.0,80.0 78.0,81.0 80.0,81.0 81.0,80.0 86.0,80.0 87.0,81.0 88.0,81.0 89.0,82.0 89.0,81.0 90.0,80.0 91.0,81.0 91.0,80.0 90.0,80.0 89.0,81.0 87.0,81.0 86.0,80.0 81.0,80.0 79.0,78.0 79.0,76.0 77.0,74.0 77.0,72.0 78.0,71.0 79.0,71.0 79.0,70.0 80.0,69.0 80.0,68.0 79.0,67.0 79.0,66.0 80.0,65.0 79.0,64.0 79.0,63.0 78.0,62.0 79.0,63.0 79.0,64.0 78.0,65.0 79.0,66.0 78.0,67.0 77.0,67.0 76.0,66.0 76.0,61.0 77.0,60.0 78.0,60.0 80.0,58.0" stroke="black" /><polyline fill="none" points="82.0,37.0 80.0,39.0 79.0,39.0 77.0,41.0 76.0,41.0 74.0,43.0 73.0,43.0 68.0,48.0 68.0,51.0 67.0,52.0 67.0,58.0 66.0,59.0 66.0,66.0 65.0,67.0 65.0,78.0 66.0,79.0 66.0,82.0 67.0,83.0 66.0,84.0 66.0,86.0 67.0,87.0 67.0,90.0 69.0,92.0 69.0,93.0 70.0,94.0 70.0,95.0 72.0,97.0 72.0,98.0 73.0,98.0 74.0,97.0 75.0,97.0 76.0,96.0 77.0,96.0 76.0,96.0 75.0,97.0 74.0,97.0 73.0,98.0 71.0,96.0 71.0,95.0 69.0,93.0 70.0,92.0 67.0,89.0 67.0,87.0 66.0,86.0 66.0,84.0 67.0,83.0 66.0,82.0 66.0,78.0 65.0,77.0 65.0,67.0 66.0,66.0 66.0,59.0 67.0,58.0 67.0,52.0 68.0,51.0 68.0,49.0 71.0,46.0 71.0,45.0 72.0,44.0 73.0,44.0 74.0,43.0 75.0,43.0 77.0,41.0 78.0,41.0 80.0,39.0 81.0,39.0 83.0,37.0" stroke="black" /><polyline fill="none" points="90.0,33.0 86.0,37.0 85.0,37.0 87.0,39.0 88.0,39.0 90.0,41.0 91.0,41.0 92.0,42.0 97.0,37.0 99.0,39.0 100.0,39.0 101.0,40.0 102.0,40.0 103.0,41.0 104.0,41.0 105.0,42.0 106.0,42.0 111.0,47.0 111.0,48.0 112.0,49.0 112.0,51.0 113.0,52.0 113.0,55.0 114.0,56.0 114.0,59.0 115.0,60.0 115.0,64.0 114.0,65.0 115.0,64.0 116.0,65.0 116.0,68.0 117.0,69.0 117.0,76.0 118.0,77.0 118.0,89.0 117.0,90.0 111.0,90.0 110.0,91.0 109.0,90.0 109.0,89.0 103.0,83.0 105.0,81.0 106.0,81.0 106.0,72.0 105.0,71.0 105.0,64.0 105.0,71.0 106.0,72.0 106.0,80.0 104.0,82.0 103.0,82.0 101.0,84.0 97.0,84.0 96.0,85.0 95.0,85.0 94.0,86.0 91.0,86.0 90.0,85.0 80.0,85.0 78.0,83.0 76.0,83.0 76.0,90.0 77.0,91.0 77.0,92.0 78.0,93.0 78.0,94.0 85.0,101.0 85.0,102.0 84.0,103.0 83.0,102.0 84.0,103.0 85.0,103.0 85.0,101.0 84.0,100.0 84.0,99.0 78.0,93.0 78.0,92.0 77.0,91.0 77.0,90.0 76.0,89.0 76.0,84.0 77.0,83.0 79.0,85.0 90.0,85.0 91.0,86.0 91.0,89.0 92.0,90.0 91.0,89.0 91.0,87.0 92.0,86.0 95.0,86.0 97.0,84.0 102.0,84.0 103.0,83.0 104.0,84.0 104.0,85.0 109.0,90.0 109.0,91.0 110.0,92.0 110.0,93.0 109.0,94.0 109.0,98.0 110.0,99.0 110.0,103.0 111.0,104.0 111.0,115.0 112.0,116.0 112.0,117.0 112.0,116.0 111.0,115.0 111.0,103.0 112.0,102.0 111.0,103.0 110.0,102.0 110.0,99.0 109.0,98.0 109.0,95.0 110.0,94.0 110.0,91.0 111.0,90.0 112.0,90.0 113.0,91.0 112.0,92.0 113.0,93.0 113.0,96.0 114.0,97.0 114.0,103.0 116.0,103.0 117.0,102.0 117.0,98.0 118.0,97.0 117.0,96.0 117.0,93.0 118.0,92.0 117.0,92.0 116.0,91.0 117.0,90.0 118.0,90.0 118.0,84.0 119.0,83.0 118.0,82.0 118.0,77.0 117.0,76.0 117.0,69.0 116.0,68.0 116.0,65.0 115.0,64.0 115.0,60.0 114.0,59.0 114.0,56.0 113.0,55.0 113.0,52.0 112.0,51.0 112.0,49.0 111.0,48.0 111.0,46.0 107.0,42.0 106.0,42.0 105.0,41.0 104.0,41.0 103.0,40.0 102.0,40.0 101.0,39.0 100.0,39.0 96.0,35.0 96.0,34.0 97.0,33.0 96.0,34.0 95.0,34.0 96.0,35.0 96.0,36.0 97.0,37.0 96.0,38.0 95.0,38.0 92.0,41.0 91.0,41.0 89.0,39.0 88.0,39.0 86.0,37.0 87.0,36.0 88.0,36.0 89.0,35.0 90.0,36.0 91.0,35.0 93.0,35.0 94.0,36.0 93.0,37.0 92.0,37.0 91.0,38.0 92.0,38.0 94.0,36.0 93.0,35.0 92.0,35.0 91.0,34.0 91.0,33.0" stroke="black" /><polyline fill="none" points="84.0,21.0 84.0,23.0 85.0,23.0 86.0,24.0 86.0,26.0 89.0,26.0 89.0,21.0 89.0,22.0 88.0,23.0 85.0,23.0 84.0,22.0" stroke="black" /><polyline fill="none" points="83.0,18.0 83.0,19.0" stroke="black" /><polyline fill="none" points="89.0,13.0 88.0,14.0 86.0,14.0 84.0,16.0 85.0,16.0 87.0,14.0 88.0,14.0 89.0,13.0 92.0,13.0 93.0,14.0 95.0,14.0 96.0,15.0 96.0,16.0 97.0,16.0 98.0,17.0 98.0,18.0 97.0,19.0 96.0,18.0 85.0,18.0 85.0,19.0 86.0,18.0 95.0,18.0 97.0,20.0 97.0,22.0 95.0,24.0 92.0,24.0 92.0,26.0 91.0,27.0 91.0,28.0 90.0,29.0 89.0,29.0 92.0,29.0 93.0,30.0 92.0,31.0 89.0,31.0 88.0,32.0 87.0,31.0 87.0,32.0 85.0,34.0 84.0,33.0 84.0,30.0 85.0,29.0 87.0,29.0 87.0,28.0 86.0,29.0 85.0,29.0 84.0,28.0 84.0,26.0 84.0,27.0 83.0,28.0 82.0,27.0 82.0,21.0 82.0,28.0 83.0,28.0 84.0,29.0 84.0,33.0 85.0,34.0 87.0,32.0 88.0,32.0 89.0,31.0 92.0,31.0 93.0,32.0 95.0,32.0 95.0,28.0 94.0,29.0 92.0,29.0 91.0,28.0 91.0,27.0 92.0,26.0 95.0,26.0 95.0,24.0 96.0,23.0 98.0,23.0 99.0,24.0 99.0,29.0 98.0,30.0 97.0,30.0 99.0,30.0 99.0,24.0 97.0,22.0 97.0,19.0 98.0,18.0 98.0,17.0 96.0,15.0 96.0,14.0 94.0,14.0 93.0,13.0" stroke="black" /></svg>